<svg width="494" height="110" viewBox="0 0 494 110" fill="none" xmlns="http://www.w3.org/2000/svg">
<path d="M1.86817 4.99999H34.2082C45.2815 4.99999 53.5315 6.61333 58.9582 9.84C64.3848 12.9933 67.0982 18.6767 67.0982 26.89C67.0982 35.9833 63.7982 42.2533 57.1982 45.7C51.0382 48.8533 42.4215 50.43 31.3482 50.43H30.4682V79.91H44.2182V82H1.86817V79.91H9.01817V7.08999H1.86817V4.99999ZM30.4682 7.08999V48.34H32.7782C37.1782 48.34 40.2215 46.8367 41.9082 43.83C43.5948 40.8233 44.4382 35.9467 44.4382 29.2V23.92C44.4382 17.6867 43.6315 13.3233 42.0182 10.83C40.4782 8.33666 37.6182 7.08999 33.4382 7.08999H30.4682ZM82.805 22.05C78.9183 22.05 76.1316 21.06 74.445 19.08C72.8316 17.1 72.025 14.6433 72.025 11.71C72.025 8.77666 72.905 6.35666 74.665 4.45C76.4983 2.54333 79.2483 1.59 82.915 1.59C86.5816 1.59 89.3683 2.47 91.275 4.23C93.1816 5.91666 94.135 8.37333 94.135 11.6C94.135 14.7533 93.2183 17.2833 91.385 19.19C89.5516 21.0967 86.6916 22.05 82.805 22.05ZM66.195 29.64H93.145V80.02H99.305V82H66.635V80.02H72.685V31.62H66.195V29.64ZM159.349 82H134.269L133.059 73.97C131.885 76.9033 130.125 79.1767 127.779 80.79C125.505 82.33 122.095 83.1 117.549 83.1C106.182 83.1 100.499 76.9767 100.499 64.73V31.62H94.3386V29.64H120.959V67.37C120.959 71.77 121.252 74.6667 121.839 76.06C122.499 77.4533 123.745 78.15 125.579 78.15C127.485 78.15 129.172 77.0133 130.639 74.74C132.105 72.4667 132.839 69.3133 132.839 65.28V31.62H127.779V29.64H153.299V80.02H159.349V82ZM197.35 52.41C197.35 44.8567 196.984 39.7967 196.25 37.23C195.517 34.59 194.087 33.27 191.96 33.27C189.834 33.27 187.927 34.6633 186.24 37.45C184.554 40.1633 183.71 43.83 183.71 48.45V68.58C183.71 71.7333 184.334 74.41 185.58 76.61C186.827 78.81 188.66 79.91 191.08 79.91C193.5 79.91 195.15 78.2967 196.03 75.07C196.91 71.8433 197.35 66.1967 197.35 58.13V52.41ZM183.49 29.64V38.33C186.35 31.8033 191.41 28.54 198.67 28.54C204.977 28.54 209.854 30.8133 213.3 35.36C216.82 39.9067 218.58 46.8 218.58 56.04C218.58 65.28 216.674 72.1 212.86 76.5C209.12 80.9 203.474 83.1 195.92 83.1C192.4 83.1 189.76 82.66 188 81.78C186.24 80.9 184.81 79.5433 183.71 77.71V106.2H197.9V108.18H157.2V106.2H163.25V31.62H157.42V29.64H183.49ZM233.638 22.05C229.751 22.05 226.965 21.06 225.278 19.08C223.665 17.1 222.858 14.6433 222.858 11.71C222.858 8.77666 223.738 6.35666 225.498 4.45C227.331 2.54333 230.081 1.59 233.748 1.59C237.415 1.59 240.201 2.47 242.108 4.23C244.015 5.91666 244.968 8.37333 244.968 11.6C244.968 14.7533 244.051 17.2833 242.218 19.19C240.385 21.0967 237.525 22.05 233.638 22.05ZM217.028 29.64H243.978V80.02H250.138V82H217.468V80.02H223.518V31.62H217.028V29.64ZM310.182 82H285.102L283.892 73.97C282.719 76.9033 280.959 79.1767 278.612 80.79C276.339 82.33 272.929 83.1 268.382 83.1C257.015 83.1 251.332 76.9767 251.332 64.73V31.62H245.172V29.64H271.792V67.37C271.792 71.77 272.085 74.6667 272.672 76.06C273.332 77.4533 274.579 78.15 276.412 78.15C278.319 78.15 280.005 77.0133 281.472 74.74C282.939 72.4667 283.672 69.3133 283.672 65.28V31.62H278.612V29.64H304.132V80.02H310.182V82ZM341.249 31.62V29.64H369.629V31.62H365.119L375.019 68.69L384.809 31.62H377.219V29.64H392.069V31.62H387.449L374.249 82H359.179L349.609 48.23L339.269 82H324.529L308.249 31.62H303.299V29.64H336.629V31.62H330.029L340.149 69.02L348.069 43.28L345.319 31.62H341.249ZM416.03 83.1C406.57 83.1 399.457 80.68 394.69 75.84C389.997 70.9267 387.65 64.1433 387.65 55.49C387.65 46.7633 390.29 40.09 395.57 35.47C400.924 30.85 407.707 28.54 415.92 28.54C432.567 28.54 440.56 36.9 439.9 53.62H408.88V57.91C408.88 65.0967 409.797 70.5233 411.63 74.19C413.464 77.8567 416.654 79.69 421.2 79.69C429.707 79.69 435.28 75.1433 437.92 66.05L439.9 66.38C438.507 71.66 435.977 75.7667 432.31 78.7C428.717 81.6333 423.29 83.1 416.03 83.1ZM408.99 51.42H420.32V46.03C420.32 40.09 419.954 36.0567 419.22 33.93C418.56 31.73 417.167 30.63 415.04 30.63C412.987 30.63 411.447 31.8033 410.42 34.15C409.467 36.4233 408.99 40.3833 408.99 46.03V51.42ZM476.159 32.72C473.446 32.72 471.062 34.48 469.009 38C466.956 41.52 465.929 45.7 465.929 50.54V80.02H473.739V82H439.419V80.02H445.469V31.62H439.419V29.64H465.929V40.2C466.882 36.46 468.716 33.6 471.429 31.62C474.142 29.5667 477.222 28.54 480.669 28.54C484.116 28.54 486.902 29.53 489.029 31.51C491.229 33.4167 492.329 36.1667 492.329 39.76C492.329 43.28 491.522 45.9933 489.909 47.9C488.296 49.8067 485.802 50.76 482.429 50.76C479.129 50.76 476.672 49.66 475.059 47.46C473.519 45.26 473.336 42.2167 474.509 38.33H478.469C480.302 34.59 479.532 32.72 476.159 32.72Z" fill="#FCA311"/>
<path d="M1.86817 4.99999V3.99999H0.86817V4.99999H1.86817ZM58.9582 9.84L58.4471 10.6996L58.4558 10.7046L58.9582 9.84ZM57.1982 45.7L57.6539 46.5902L57.6611 46.5864L57.1982 45.7ZM30.4682 50.43V49.43H29.4682V50.43H30.4682ZM30.4682 79.91H29.4682V80.91H30.4682V79.91ZM44.2182 79.91H45.2182V78.91H44.2182V79.91ZM44.2182 82V83H45.2182V82H44.2182ZM1.86817 82H0.86817V83H1.86817V82ZM1.86817 79.91V78.91H0.86817V79.91H1.86817ZM9.01817 79.91V80.91H10.0182V79.91H9.01817ZM9.01817 7.08999H10.0182V6.08999H9.01817V7.08999ZM1.86817 7.08999H0.86817V8.08999H1.86817V7.08999ZM30.4682 7.08999V6.08999H29.4682V7.08999H30.4682ZM30.4682 48.34H29.4682V49.34H30.4682V48.34ZM41.9082 43.83L42.7803 44.3193L42.7803 44.3193L41.9082 43.83ZM42.0182 10.83L41.1674 11.3555L41.1729 11.3644L41.1786 11.3732L42.0182 10.83ZM1.86817 5.99999H34.2082V3.99999H1.86817V5.99999ZM34.2082 5.99999C45.2195 5.99999 53.252 7.61058 58.4471 10.6995L59.4692 8.98046C53.811 5.61608 45.3435 3.99999 34.2082 3.99999V5.99999ZM58.4558 10.7046C63.4792 13.6236 66.0982 18.9071 66.0982 26.89H68.0982C68.0982 18.4463 65.2905 12.363 59.4606 8.97537L58.4558 10.7046ZM66.0982 26.89C66.0982 35.7095 62.926 41.5806 56.7353 44.8136L57.6611 46.5864C64.6703 42.926 68.0982 36.2572 68.0982 26.89H66.0982ZM56.7425 44.8099C50.7835 47.8603 42.348 49.43 31.3482 49.43V51.43C42.495 51.43 51.2928 49.8464 57.6538 46.5901L56.7425 44.8099ZM31.3482 49.43H30.4682V51.43H31.3482V49.43ZM29.4682 50.43V79.91H31.4682V50.43H29.4682ZM30.4682 80.91H44.2182V78.91H30.4682V80.91ZM43.2182 79.91V82H45.2182V79.91H43.2182ZM44.2182 81H1.86817V83H44.2182V81ZM2.86817 82V79.91H0.86817V82H2.86817ZM1.86817 80.91H9.01817V78.91H1.86817V80.91ZM10.0182 79.91V7.08999H8.01817V79.91H10.0182ZM9.01817 6.08999H1.86817V8.08999H9.01817V6.08999ZM2.86817 7.08999V4.99999H0.86817V7.08999H2.86817ZM29.4682 7.08999V48.34H31.4682V7.08999H29.4682ZM30.4682 49.34H32.7782V47.34H30.4682V49.34ZM32.7782 49.34C37.4237 49.34 40.8663 47.7311 42.7803 44.3193L41.036 43.3407C39.5767 45.9422 36.9327 47.34 32.7782 47.34V49.34ZM42.7803 44.3193C44.5985 41.0782 45.4382 35.9831 45.4382 29.2H43.4382C43.4382 35.9102 42.5912 40.5684 41.036 43.3407L42.7803 44.3193ZM45.4382 29.2V23.92H43.4382V29.2H45.4382ZM45.4382 23.92C45.4382 17.6643 44.6405 13.042 42.8577 10.2867L41.1786 11.3732C42.6225 13.6047 43.4382 17.709 43.4382 23.92H45.4382ZM42.869 10.3045C41.0754 7.40064 37.8029 6.08999 33.4382 6.08999V8.08999C37.4334 8.08999 39.8809 9.27269 41.1674 11.3555L42.869 10.3045ZM33.4382 6.08999H30.4682V8.08999H33.4382V6.08999ZM74.445 19.08L73.6697 19.7117L73.6766 19.7201L73.6837 19.7285L74.445 19.08ZM74.665 4.45L73.9441 3.75689L73.9371 3.76423L73.9302 3.77172L74.665 4.45ZM91.275 4.23L90.5967 4.9648L90.6045 4.97198L90.6124 4.97899L91.275 4.23ZM91.385 19.19L90.6641 18.4969L90.6641 18.4969L91.385 19.19ZM66.195 29.64V28.64H65.195V29.64H66.195ZM93.145 29.64H94.145V28.64H93.145V29.64ZM93.145 80.02H92.145V81.02H93.145V80.02ZM99.305 80.02H100.305V79.02H99.305V80.02ZM99.305 82V83H100.305V82H99.305ZM66.635 82H65.635V83H66.635V82ZM66.635 80.02V79.02H65.635V80.02H66.635ZM72.685 80.02V81.02H73.685V80.02H72.685ZM72.685 31.62H73.685V30.62H72.685V31.62ZM66.195 31.62H65.195V32.62H66.195V31.62ZM82.805 21.05C79.0642 21.05 76.6247 20.0967 75.2062 18.4315L73.6837 19.7285C75.6386 22.0233 78.7724 23.05 82.805 23.05V21.05ZM75.2202 18.4483C73.7735 16.6728 73.025 14.4492 73.025 11.71H71.025C71.025 14.8375 71.8898 17.5272 73.6697 19.7117L75.2202 18.4483ZM73.025 11.71C73.025 8.99274 73.8328 6.82581 75.3998 5.12828L73.9302 3.77172C71.9771 5.88752 71.025 8.56059 71.025 11.71H73.025ZM75.3858 5.1431C76.9671 3.49853 79.4126 2.59 82.915 2.59V0.589999C79.084 0.589999 76.0295 1.58814 73.9441 3.75689L75.3858 5.1431ZM82.915 2.59C86.434 2.59 88.939 3.43462 90.5967 4.9648L91.9532 3.49519C89.7976 1.50538 86.7292 0.589999 82.915 0.589999V2.59ZM90.6124 4.97899C92.2498 6.42746 93.135 8.57761 93.135 11.6H95.135C95.135 8.16905 94.1135 5.40587 91.9375 3.481L90.6124 4.97899ZM93.135 11.6C93.135 14.5478 92.2847 16.8115 90.6641 18.4969L92.1058 19.8831C94.1519 17.7552 95.135 14.9588 95.135 11.6H93.135ZM90.6641 18.4969C89.0927 20.1312 86.5476 21.05 82.805 21.05V23.05C86.8357 23.05 90.0106 22.0621 92.1058 19.8831L90.6641 18.4969ZM66.195 30.64H93.145V28.64H66.195V30.64ZM92.145 29.64V80.02H94.145V29.64H92.145ZM93.145 81.02H99.305V79.02H93.145V81.02ZM98.305 80.02V82H100.305V80.02H98.305ZM99.305 81H66.635V83H99.305V81ZM67.635 82V80.02H65.635V82H67.635ZM66.635 81.02H72.685V79.02H66.635V81.02ZM73.685 80.02V31.62H71.685V80.02H73.685ZM72.685 30.62H66.195V32.62H72.685V30.62ZM67.195 31.62V29.64H65.195V31.62H67.195ZM159.349 82V83H160.349V82H159.349ZM134.269 82L133.28 82.149L133.408 83H134.269V82ZM133.059 73.97L134.047 73.821L133.498 70.1778L132.13 73.5986L133.059 73.97ZM127.779 80.79L128.34 81.6179L128.345 81.614L127.779 80.79ZM100.499 31.62H101.499V30.62H100.499V31.62ZM94.3386 31.62H93.3386V32.62H94.3386V31.62ZM94.3386 29.64V28.64H93.3386V29.64H94.3386ZM120.959 29.64H121.959V28.64H120.959V29.64ZM121.839 76.06L120.917 76.4481L120.926 76.4683L120.935 76.4881L121.839 76.06ZM130.639 74.74L131.479 75.2821L131.479 75.2821L130.639 74.74ZM132.839 31.62H133.839V30.62H132.839V31.62ZM127.779 31.62H126.779V32.62H127.779V31.62ZM127.779 29.64V28.64H126.779V29.64H127.779ZM153.299 29.64H154.299V28.64H153.299V29.64ZM153.299 80.02H152.299V81.02H153.299V80.02ZM159.349 80.02H160.349V79.02H159.349V80.02ZM159.349 81H134.269V83H159.349V81ZM135.257 81.851L134.047 73.821L132.07 74.119L133.28 82.149L135.257 81.851ZM132.13 73.5986C131.022 76.3695 129.379 78.4765 127.212 79.966L128.345 81.614C130.872 79.8768 132.749 77.4372 133.987 74.3414L132.13 73.5986ZM127.218 79.9621C125.186 81.3381 122.014 82.1 117.549 82.1V84.1C122.177 84.1 125.824 83.3219 128.339 81.6179L127.218 79.9621ZM117.549 82.1C112.039 82.1 108.086 80.6195 105.494 77.8272C102.889 75.0208 101.499 70.7169 101.499 64.73H99.4986C99.4986 70.9897 100.95 75.8708 104.028 79.1878C107.12 82.5188 111.691 84.1 117.549 84.1V82.1ZM101.499 64.73V31.62H99.4986V64.73H101.499ZM100.499 30.62H94.3386V32.62H100.499V30.62ZM95.3386 31.62V29.64H93.3386V31.62H95.3386ZM94.3386 30.64H120.959V28.64H94.3386V30.64ZM119.959 29.64V67.37H121.959V29.64H119.959ZM119.959 67.37C119.959 69.5885 120.032 71.4492 120.184 72.9433C120.333 74.4169 120.564 75.6102 120.917 76.4481L122.76 75.6719C122.526 75.1164 122.318 74.1648 122.174 72.7417C122.032 71.3392 121.959 69.5515 121.959 67.37H119.959ZM120.935 76.4881C121.346 77.3569 121.961 78.0425 122.781 78.5004C123.59 78.9525 124.539 79.15 125.579 79.15V77.15C124.785 77.15 124.194 76.9992 123.756 76.7546C123.329 76.5159 122.991 76.1564 122.742 75.6319L120.935 76.4881ZM125.579 79.15C127.955 79.15 129.912 77.7107 131.479 75.2821L129.798 74.1979C128.432 76.316 127.015 77.15 125.579 77.15V79.15ZM131.479 75.2821C133.089 72.7862 133.839 69.4172 133.839 65.28H131.839C131.839 69.2095 131.121 72.1472 129.798 74.1979L131.479 75.2821ZM133.839 65.28V31.62H131.839V65.28H133.839ZM132.839 30.62H127.779V32.62H132.839V30.62ZM128.779 31.62V29.64H126.779V31.62H128.779ZM127.779 30.64H153.299V28.64H127.779V30.64ZM152.299 29.64V80.02H154.299V29.64H152.299ZM153.299 81.02H159.349V79.02H153.299V81.02ZM158.349 80.02V82H160.349V80.02H158.349ZM196.25 37.23L195.287 37.4977L195.289 37.5047L196.25 37.23ZM186.24 37.45L187.09 37.978L187.096 37.9678L186.24 37.45ZM185.58 76.61L184.71 77.103L184.71 77.103L185.58 76.61ZM196.03 75.07L195.065 74.8069L195.065 74.8069L196.03 75.07ZM183.49 29.64H184.49V28.64H183.49V29.64ZM183.49 38.33H182.49L184.406 38.7314L183.49 38.33ZM213.3 35.36L212.503 35.9641L212.509 35.9722L213.3 35.36ZM212.86 76.5L212.104 75.845L212.098 75.8524L212.86 76.5ZM188 81.78L188.447 80.8856L188.447 80.8856L188 81.78ZM183.71 77.71L184.568 77.1955L182.71 74.0997V77.71H183.71ZM183.71 106.2H182.71V107.2H183.71V106.2ZM197.9 106.2H198.9V105.2H197.9V106.2ZM197.9 108.18V109.18H198.9V108.18H197.9ZM157.2 108.18H156.2V109.18H157.2V108.18ZM157.2 106.2V105.2H156.2V106.2H157.2ZM163.25 106.2V107.2H164.25V106.2H163.25ZM163.25 31.62H164.25V30.62H163.25V31.62ZM157.42 31.62H156.42V32.62H157.42V31.62ZM157.42 29.64V28.64H156.42V29.64H157.42ZM198.35 52.41C198.35 44.8751 197.989 39.6771 197.212 36.9553L195.289 37.5047C195.978 39.9162 196.35 44.8382 196.35 52.41H198.35ZM197.214 36.9624C196.817 35.5329 196.203 34.3528 195.306 33.5252C194.388 32.6782 193.25 32.27 191.96 32.27V34.27C192.798 34.27 193.437 34.5218 193.949 34.9948C194.483 35.4872 194.95 36.2871 195.287 37.4976L197.214 36.9624ZM191.96 32.27C189.323 32.27 187.15 34.0162 185.385 36.9322L187.096 37.9678C188.704 35.3104 190.345 34.27 191.96 34.27V32.27ZM185.391 36.9221C183.571 39.8495 182.71 43.7221 182.71 48.45H184.71C184.71 43.9379 185.536 40.4771 187.089 37.9779L185.391 36.9221ZM182.71 48.45V68.58H184.71V48.45H182.71ZM182.71 68.58C182.71 71.864 183.36 74.7198 184.71 77.103L186.45 76.117C185.307 74.1002 184.71 71.6027 184.71 68.58H182.71ZM184.71 77.103C186.125 79.599 188.281 80.91 191.08 80.91V78.91C189.04 78.91 187.529 78.021 186.45 76.117L184.71 77.103ZM191.08 80.91C192.537 80.91 193.81 80.414 194.832 79.415C195.829 78.4404 196.528 77.0456 196.995 75.3331L195.065 74.8069C194.652 76.3211 194.087 77.3463 193.434 77.985C192.805 78.5993 192.043 78.91 191.08 78.91V80.91ZM196.995 75.3331C197.914 71.9637 198.35 66.1957 198.35 58.13H196.35C196.35 66.1976 195.907 71.7229 195.065 74.8069L196.995 75.3331ZM198.35 58.13V52.41H196.35V58.13H198.35ZM182.49 29.64V38.33H184.49V29.64H182.49ZM184.406 38.7314C185.772 35.6143 187.636 33.3348 189.972 31.8279C192.31 30.3201 195.193 29.54 198.67 29.54V27.54C194.888 27.54 191.61 28.3915 188.888 30.1471C186.165 31.9035 184.068 34.519 182.574 37.9286L184.406 38.7314ZM198.67 29.54C204.702 29.54 209.267 31.6956 212.503 35.9641L214.097 34.7559C210.44 29.9311 205.252 27.54 198.67 27.54V29.54ZM212.509 35.9722C215.833 40.2655 217.58 46.8968 217.58 56.04H219.58C219.58 46.7032 217.807 39.5479 214.091 34.7478L212.509 35.9722ZM217.58 56.04C217.58 65.173 215.691 71.7073 212.105 75.8451L213.616 77.1549C217.657 72.4927 219.58 65.387 219.58 56.04H217.58ZM212.098 75.8524C208.603 79.9645 203.277 82.1 195.92 82.1V84.1C203.67 84.1 209.637 81.8355 213.622 77.1476L212.098 75.8524ZM195.92 82.1C192.451 82.1 189.998 81.6611 188.447 80.8856L187.553 82.6744C189.522 83.6589 192.349 84.1 195.92 84.1V82.1ZM188.447 80.8856C186.872 80.098 185.579 78.8804 184.568 77.1955L182.853 78.2245C184.042 80.2062 185.608 81.702 187.553 82.6744L188.447 80.8856ZM182.71 77.71V106.2H184.71V77.71H182.71ZM183.71 107.2H197.9V105.2H183.71V107.2ZM196.9 106.2V108.18H198.9V106.2H196.9ZM197.9 107.18H157.2V109.18H197.9V107.18ZM158.2 108.18V106.2H156.2V108.18H158.2ZM157.2 107.2H163.25V105.2H157.2V107.2ZM164.25 106.2V31.62H162.25V106.2H164.25ZM163.25 30.62H157.42V32.62H163.25V30.62ZM158.42 31.62V29.64H156.42V31.62H158.42ZM157.42 30.64H183.49V28.64H157.42V30.64ZM225.278 19.08L224.503 19.7117L224.51 19.7201L224.517 19.7285L225.278 19.08ZM225.498 4.45L224.777 3.75689L224.77 3.76423L224.763 3.77172L225.498 4.45ZM242.108 4.23L241.43 4.9648L241.438 4.97198L241.446 4.97899L242.108 4.23ZM242.218 19.19L241.497 18.4969L241.497 18.4969L242.218 19.19ZM217.028 29.64V28.64H216.028V29.64H217.028ZM243.978 29.64H244.978V28.64H243.978V29.64ZM243.978 80.02H242.978V81.02H243.978V80.02ZM250.138 80.02H251.138V79.02H250.138V80.02ZM250.138 82V83H251.138V82H250.138ZM217.468 82H216.468V83H217.468V82ZM217.468 80.02V79.02H216.468V80.02H217.468ZM223.518 80.02V81.02H224.518V80.02H223.518ZM223.518 31.62H224.518V30.62H223.518V31.62ZM217.028 31.62H216.028V32.62H217.028V31.62ZM233.638 21.05C229.897 21.05 227.458 20.0967 226.039 18.4315L224.517 19.7285C226.472 22.0233 229.606 23.05 233.638 23.05V21.05ZM226.053 18.4483C224.607 16.6728 223.858 14.4492 223.858 11.71H221.858C221.858 14.8375 222.723 17.5272 224.503 19.7117L226.053 18.4483ZM223.858 11.71C223.858 8.99274 224.666 6.82581 226.233 5.12828L224.763 3.77172C222.81 5.88752 221.858 8.56059 221.858 11.71H223.858ZM226.219 5.1431C227.8 3.49853 230.246 2.59 233.748 2.59V0.589999C229.917 0.589999 226.863 1.58814 224.777 3.75689L226.219 5.1431ZM233.748 2.59C237.267 2.59 239.772 3.43462 241.43 4.9648L242.786 3.49519C240.631 1.50538 237.562 0.589999 233.748 0.589999V2.59ZM241.446 4.97899C243.083 6.42746 243.968 8.57761 243.968 11.6H245.968C245.968 8.16905 244.947 5.40587 242.771 3.481L241.446 4.97899ZM243.968 11.6C243.968 14.5478 243.118 16.8115 241.497 18.4969L242.939 19.8831C244.985 17.7552 245.968 14.9588 245.968 11.6H243.968ZM241.497 18.4969C239.926 20.1312 237.381 21.05 233.638 21.05V23.05C237.669 23.05 240.844 22.0621 242.939 19.8831L241.497 18.4969ZM217.028 30.64H243.978V28.64H217.028V30.64ZM242.978 29.64V80.02H244.978V29.64H242.978ZM243.978 81.02H250.138V79.02H243.978V81.02ZM249.138 80.02V82H251.138V80.02H249.138ZM250.138 81H217.468V83H250.138V81ZM218.468 82V80.02H216.468V82H218.468ZM217.468 81.02H223.518V79.02H217.468V81.02ZM224.518 80.02V31.62H222.518V80.02H224.518ZM223.518 30.62H217.028V32.62H223.518V30.62ZM218.028 31.62V29.64H216.028V31.62H218.028ZM310.182 82V83H311.182V82H310.182ZM285.102 82L284.113 82.149L284.241 83H285.102V82ZM283.892 73.97L284.881 73.821L284.332 70.1778L282.963 73.5986L283.892 73.97ZM278.612 80.79L279.173 81.6179L279.178 81.614L278.612 80.79ZM251.332 31.62H252.332V30.62H251.332V31.62ZM245.172 31.62H244.172V32.62H245.172V31.62ZM245.172 29.64V28.64H244.172V29.64H245.172ZM271.792 29.64H272.792V28.64H271.792V29.64ZM272.672 76.06L271.75 76.4481L271.759 76.4683L271.768 76.4881L272.672 76.06ZM281.472 74.74L282.312 75.2821L282.312 75.2821L281.472 74.74ZM283.672 31.62H284.672V30.62H283.672V31.62ZM278.612 31.62H277.612V32.62H278.612V31.62ZM278.612 29.64V28.64H277.612V29.64H278.612ZM304.132 29.64H305.132V28.64H304.132V29.64ZM304.132 80.02H303.132V81.02H304.132V80.02ZM310.182 80.02H311.182V79.02H310.182V80.02ZM310.182 81H285.102V83H310.182V81ZM286.091 81.851L284.881 73.821L282.903 74.119L284.113 82.149L286.091 81.851ZM282.963 73.5986C281.855 76.3695 280.212 78.4765 278.045 79.966L279.178 81.614C281.705 79.8768 283.582 77.4372 284.82 74.3414L282.963 73.5986ZM278.051 79.9621C276.02 81.3381 272.847 82.1 268.382 82.1V84.1C273.01 84.1 276.657 83.3219 279.173 81.6179L278.051 79.9621ZM268.382 82.1C262.873 82.1 258.919 80.6195 256.327 77.8272C253.723 75.0208 252.332 70.7169 252.332 64.73H250.332C250.332 70.9897 251.783 75.8708 254.861 79.1878C257.953 82.5188 262.524 84.1 268.382 84.1V82.1ZM252.332 64.73V31.62H250.332V64.73H252.332ZM251.332 30.62H245.172V32.62H251.332V30.62ZM246.172 31.62V29.64H244.172V31.62H246.172ZM245.172 30.64H271.792V28.64H245.172V30.64ZM270.792 29.64V67.37H272.792V29.64H270.792ZM270.792 67.37C270.792 69.5885 270.866 71.4492 271.017 72.9433C271.166 74.4169 271.397 75.6102 271.75 76.4481L273.593 75.6719C273.36 75.1164 273.151 74.1648 273.007 72.7417C272.865 71.3392 272.792 69.5515 272.792 67.37H270.792ZM271.768 76.4881C272.18 77.3569 272.795 78.0425 273.614 78.5004C274.423 78.9525 275.372 79.15 276.412 79.15V77.15C275.619 77.15 275.027 76.9992 274.59 76.7546C274.163 76.5159 273.824 76.1564 273.576 75.6319L271.768 76.4881ZM276.412 79.15C278.789 79.15 280.745 77.7107 282.312 75.2821L280.632 74.1979C279.265 76.316 277.848 77.15 276.412 77.15V79.15ZM282.312 75.2821C283.922 72.7862 284.672 69.4172 284.672 65.28H282.672C282.672 69.2095 281.955 72.1472 280.632 74.1979L282.312 75.2821ZM284.672 65.28V31.62H282.672V65.28H284.672ZM283.672 30.62H278.612V32.62H283.672V30.62ZM279.612 31.62V29.64H277.612V31.62H279.612ZM278.612 30.64H304.132V28.64H278.612V30.64ZM303.132 29.64V80.02H305.132V29.64H303.132ZM304.132 81.02H310.182V79.02H304.132V81.02ZM309.182 80.02V82H311.182V80.02H309.182ZM341.249 31.62H340.249V32.62H341.249V31.62ZM341.249 29.64V28.64H340.249V29.64H341.249ZM369.629 29.64H370.629V28.64H369.629V29.64ZM369.629 31.62V32.62H370.629V31.62H369.629ZM365.119 31.62V30.62H363.817L364.153 31.878L365.119 31.62ZM375.019 68.69L374.053 68.948L375.025 72.5859L375.986 68.9453L375.019 68.69ZM384.809 31.62L385.776 31.8753L386.107 30.62H384.809V31.62ZM377.219 31.62H376.219V32.62H377.219V31.62ZM377.219 29.64V28.64H376.219V29.64H377.219ZM392.069 29.64H393.069V28.64H392.069V29.64ZM392.069 31.62V32.62H393.069V31.62H392.069ZM387.449 31.62V30.62H386.677L386.482 31.3665L387.449 31.62ZM374.249 82V83H375.021L375.216 82.2535L374.249 82ZM359.179 82L358.217 82.2727L358.423 83H359.179V82ZM349.609 48.23L350.571 47.9573L349.646 44.6932L348.653 47.9372L349.609 48.23ZM339.269 82V83H340.009L340.225 82.2928L339.269 82ZM324.529 82L323.578 82.3075L323.801 83H324.529V82ZM308.249 31.62L309.201 31.3125L308.977 30.62H308.249V31.62ZM303.299 31.62H302.299V32.62H303.299V31.62ZM303.299 29.64V28.64H302.299V29.64H303.299ZM336.629 29.64H337.629V28.64H336.629V29.64ZM336.629 31.62V32.62H337.629V31.62H336.629ZM330.029 31.62V30.62H328.723L329.064 31.8812L330.029 31.62ZM340.149 69.02L339.184 69.2812L340.087 72.6207L341.105 69.3141L340.149 69.02ZM348.069 43.28L349.025 43.5741L349.105 43.3146L349.042 43.0504L348.069 43.28ZM345.319 31.62L346.292 31.3904L346.111 30.62H345.319V31.62ZM342.249 31.62V29.64H340.249V31.62H342.249ZM341.249 30.64H369.629V28.64H341.249V30.64ZM368.629 29.64V31.62H370.629V29.64H368.629ZM369.629 30.62H365.119V32.62H369.629V30.62ZM364.153 31.878L374.053 68.948L375.985 68.432L366.085 31.362L364.153 31.878ZM375.986 68.9453L385.776 31.8753L383.842 31.3647L374.052 68.4347L375.986 68.9453ZM384.809 30.62H377.219V32.62H384.809V30.62ZM378.219 31.62V29.64H376.219V31.62H378.219ZM377.219 30.64H392.069V28.64H377.219V30.64ZM391.069 29.64V31.62H393.069V29.64H391.069ZM392.069 30.62H387.449V32.62H392.069V30.62ZM386.482 31.3665L373.282 81.7465L375.216 82.2535L388.416 31.8734L386.482 31.3665ZM374.249 81H359.179V83H374.249V81ZM360.141 81.7273L350.571 47.9573L348.647 48.5026L358.217 82.2727L360.141 81.7273ZM348.653 47.9372L338.313 81.7072L340.225 82.2928L350.565 48.5228L348.653 47.9372ZM339.269 81H324.529V83H339.269V81ZM325.481 81.6925L309.201 31.3125L307.298 31.9275L323.578 82.3075L325.481 81.6925ZM308.249 30.62H303.299V32.62H308.249V30.62ZM304.299 31.62V29.64H302.299V31.62H304.299ZM303.299 30.64H336.629V28.64H303.299V30.64ZM335.629 29.64V31.62H337.629V29.64H335.629ZM336.629 30.62H330.029V32.62H336.629V30.62ZM329.064 31.8812L339.184 69.2812L341.114 68.7588L330.994 31.3588L329.064 31.8812ZM341.105 69.3141L349.025 43.5741L347.113 42.9859L339.193 68.7259L341.105 69.3141ZM349.042 43.0504L346.292 31.3904L344.346 31.8495L347.096 43.5095L349.042 43.0504ZM345.319 30.62H341.249V32.62H345.319V30.62ZM394.69 75.84L393.967 76.5307L393.972 76.5363L393.978 76.5417L394.69 75.84ZM395.57 35.47L394.917 34.7129L394.912 34.7174L395.57 35.47ZM439.9 53.62V54.62H440.862L440.899 53.6594L439.9 53.62ZM408.88 53.62V52.62H407.88V53.62H408.88ZM411.63 74.19L410.736 74.6372L410.736 74.6372L411.63 74.19ZM437.92 66.05L438.085 65.0636L437.208 64.9175L436.96 65.7712L437.92 66.05ZM439.9 66.38L440.867 66.6352L441.147 65.574L440.065 65.3936L439.9 66.38ZM432.31 78.7L431.685 77.9191L431.678 77.9253L432.31 78.7ZM408.99 51.42H407.99V52.42H408.99V51.42ZM420.32 51.42V52.42H421.32V51.42H420.32ZM419.22 33.93L418.262 34.2173L418.268 34.2368L418.275 34.256L419.22 33.93ZM410.42 34.15L409.504 33.7492L409.501 33.7562L409.498 33.7633L410.42 34.15ZM416.03 82.1C406.731 82.1 399.918 79.7227 395.403 75.1383L393.978 76.5417C398.996 81.6373 406.41 84.1 416.03 84.1V82.1ZM395.413 75.1493C390.943 70.469 388.65 63.9594 388.65 55.49H386.65C386.65 64.3273 389.051 71.3843 393.967 76.5307L395.413 75.1493ZM388.65 55.49C388.65 46.9757 391.217 40.6078 396.229 36.2226L394.912 34.7174C389.363 39.5722 386.65 46.551 386.65 55.49H388.65ZM396.224 36.2271C401.367 31.7886 407.906 29.54 415.92 29.54V27.54C407.508 27.54 400.481 29.9114 394.917 34.7129L396.224 36.2271ZM415.92 29.54C424.092 29.54 429.939 31.5916 433.677 35.5011C437.416 39.4116 439.225 45.3695 438.901 53.5806L440.899 53.6594C441.235 45.1505 439.377 38.5683 435.123 34.1189C430.868 29.6684 424.395 27.54 415.92 27.54V29.54ZM439.9 52.62H408.88V54.62H439.9V52.62ZM407.88 53.62V57.91H409.88V53.62H407.88ZM407.88 57.91C407.88 65.1516 408.799 70.7635 410.736 74.6372L412.525 73.7428C410.795 70.2831 409.88 65.0418 409.88 57.91H407.88ZM410.736 74.6372C411.73 76.6256 413.115 78.1564 414.899 79.182C416.678 80.2041 418.793 80.69 421.2 80.69V78.69C419.061 78.69 417.308 78.2592 415.896 77.448C414.491 76.6403 413.364 75.4211 412.525 73.7428L410.736 74.6372ZM421.2 80.69C425.64 80.69 429.396 79.4994 432.392 77.0549C435.379 74.6183 437.522 71.0094 438.881 66.3288L436.96 65.7712C435.679 70.184 433.715 73.395 431.128 75.5051C428.551 77.6073 425.267 78.69 421.2 78.69V80.69ZM437.756 67.0364L439.736 67.3664L440.065 65.3936L438.085 65.0636L437.756 67.0364ZM438.933 66.1248C437.585 71.2325 435.158 75.1408 431.686 77.9191L432.935 79.4809C436.795 76.3925 439.428 72.0875 440.867 66.6352L438.933 66.1248ZM431.678 77.9253C428.339 80.6506 423.183 82.1 416.03 82.1V84.1C423.398 84.1 429.094 82.6161 432.943 79.4747L431.678 77.9253ZM408.99 52.42H420.32V50.42H408.99V52.42ZM421.32 51.42V46.03H419.32V51.42H421.32ZM421.32 46.03C421.32 40.1038 420.961 35.9101 420.166 33.604L418.275 34.256C418.946 36.2032 419.32 40.0762 419.32 46.03H421.32ZM420.178 33.6427C419.806 32.4035 419.199 31.3801 418.3 30.6701C417.394 29.9547 416.282 29.63 415.04 29.63V31.63C415.925 31.63 416.573 31.8553 417.061 32.2399C417.555 32.6299 417.974 33.2564 418.262 34.2173L420.178 33.6427ZM415.04 29.63C413.809 29.63 412.694 29.9869 411.739 30.7146C410.797 31.4323 410.064 32.4687 409.504 33.7492L411.336 34.5508C411.803 33.4846 412.353 32.7611 412.951 32.3054C413.536 31.8598 414.218 31.63 415.04 31.63V29.63ZM409.498 33.7633C408.46 36.2384 407.99 40.3785 407.99 46.03H409.99C409.99 40.3882 410.474 36.6082 411.342 34.5367L409.498 33.7633ZM407.99 46.03V51.42H409.99V46.03H407.99ZM469.009 38L469.873 38.5039L469.873 38.5039L469.009 38ZM465.929 80.02H464.929V81.02H465.929V80.02ZM473.739 80.02H474.739V79.02H473.739V80.02ZM473.739 82V83H474.739V82H473.739ZM439.419 82H438.419V83H439.419V82ZM439.419 80.02V79.02H438.419V80.02H439.419ZM445.469 80.02V81.02H446.469V80.02H445.469ZM445.469 31.62H446.469V30.62H445.469V31.62ZM439.419 31.62H438.419V32.62H439.419V31.62ZM439.419 29.64V28.64H438.419V29.64H439.419ZM465.929 29.64H466.929V28.64H465.929V29.64ZM465.929 40.2H464.929L466.898 40.447L465.929 40.2ZM471.429 31.62L472.018 32.4278L472.025 32.4227L472.032 32.4174L471.429 31.62ZM489.029 31.51L488.348 32.2419L488.361 32.254L488.374 32.2657L489.029 31.51ZM489.909 47.9L489.146 47.2541L489.146 47.2541L489.909 47.9ZM475.059 47.46L474.24 48.0335L474.246 48.0425L474.253 48.0514L475.059 47.46ZM474.509 38.33V37.33H473.766L473.552 38.041L474.509 38.33ZM478.469 38.33V39.33H479.092L479.367 38.7702L478.469 38.33ZM476.159 31.72C472.932 31.72 470.28 33.8361 468.145 37.4961L469.873 38.5039C471.844 35.1239 473.96 33.72 476.159 33.72V31.72ZM468.145 37.4961C465.987 41.1955 464.929 45.5563 464.929 50.54H466.929C466.929 45.8437 467.924 41.8445 469.873 38.5039L468.145 37.4961ZM464.929 50.54V80.02H466.929V50.54H464.929ZM465.929 81.02H473.739V79.02H465.929V81.02ZM472.739 80.02V82H474.739V80.02H472.739ZM473.739 81H439.419V83H473.739V81ZM440.419 82V80.02H438.419V82H440.419ZM439.419 81.02H445.469V79.02H439.419V81.02ZM446.469 80.02V31.62H444.469V80.02H446.469ZM445.469 30.62H439.419V32.62H445.469V30.62ZM440.419 31.62V29.64H438.419V31.62H440.419ZM439.419 30.64H465.929V28.64H439.419V30.64ZM464.929 29.64V40.2H466.929V29.64H464.929ZM466.898 40.447C467.803 36.8969 469.521 34.2506 472.018 32.4278L470.839 30.8122C467.911 32.9494 465.962 36.0231 464.96 39.953L466.898 40.447ZM472.032 32.4174C474.57 30.4973 477.437 29.54 480.669 29.54V27.54C477.007 27.54 473.715 28.636 470.825 30.8226L472.032 32.4174ZM480.669 29.54C483.913 29.54 486.44 30.4655 488.348 32.2419L489.71 30.7781C487.365 28.5945 484.318 27.54 480.669 27.54V29.54ZM488.374 32.2657C490.305 33.9389 491.329 36.3829 491.329 39.76H493.329C493.329 35.9504 492.153 32.8944 489.684 30.7543L488.374 32.2657ZM491.329 39.76C491.329 43.1392 490.554 45.5896 489.146 47.2541L490.672 48.5459C492.491 46.3971 493.329 43.4208 493.329 39.76H491.329ZM489.146 47.2541C487.783 48.8645 485.617 49.76 482.429 49.76V51.76C485.987 51.76 488.808 50.7488 490.672 48.5459L489.146 47.2541ZM482.429 49.76C479.372 49.76 477.25 48.7566 475.865 46.8686L474.253 48.0514C476.095 50.5634 478.886 51.76 482.429 51.76V49.76ZM475.878 46.8865C474.589 45.045 474.335 42.3661 475.466 38.619L473.552 38.041C472.336 42.0672 472.449 45.475 474.24 48.0335L475.878 46.8865ZM474.509 39.33H478.469V37.33H474.509V39.33ZM479.367 38.7702C479.848 37.788 480.183 36.8814 480.338 36.0619C480.493 35.2452 480.482 34.4483 480.191 33.7417C479.563 32.2172 477.952 31.72 476.159 31.72V33.72C477.739 33.72 478.2 34.1578 478.342 34.5032C478.436 34.7317 478.484 35.1036 478.373 35.6894C478.263 36.2724 478.006 37.002 477.571 37.8898L479.367 38.7702Z" fill="#D17F1F" fill-opacity="0.85"/>
</svg>
