<svg width="32" height="32" viewBox="0 0 32 32" fill="none" xmlns="http://www.w3.org/2000/svg">
<path fill-rule="evenodd" clip-rule="evenodd" d="M16.5108 17.0715L29.9458 30.5066L30.6529 29.7995L17.2179 16.3644L30.6529 2.9294L29.9458 2.22229L16.5108 15.6573L2.36867 1.51518L1.66156 2.22229L15.8037 16.3644L1.66156 30.5066L2.36867 31.2137L16.5108 17.0715Z" fill="black"/>
<path d="M29.9458 30.5066L29.5923 30.8601L29.9458 31.2137L30.2994 30.8601L29.9458 30.5066ZM16.5108 17.0715L16.8644 16.718L16.5108 16.3644L16.1572 16.718L16.5108 17.0715ZM30.6529 29.7995L31.0065 30.153L31.36 29.7995L31.0065 29.4459L30.6529 29.7995ZM17.2179 16.3644L16.8644 16.0109L16.5108 16.3644L16.8644 16.718L17.2179 16.3644ZM30.6529 2.9294L31.0065 3.28295L31.36 2.9294L31.0065 2.57584L30.6529 2.9294ZM29.9458 2.22229L30.2994 1.86874L29.9458 1.51518L29.5923 1.86874L29.9458 2.22229ZM16.5108 15.6573L16.1572 16.0109L16.5108 16.3644L16.8644 16.0109L16.5108 15.6573ZM2.36867 1.51518L2.72222 1.16163L2.36867 0.808076L2.01511 1.16163L2.36867 1.51518ZM1.66156 2.22229L1.30801 1.86874L0.954453 2.22229L1.30801 2.57584L1.66156 2.22229ZM15.8037 16.3644L16.1572 16.718L16.5108 16.3644L16.1572 16.0109L15.8037 16.3644ZM1.66156 30.5066L1.30801 30.153L0.954453 30.5066L1.30801 30.8601L1.66156 30.5066ZM2.36867 31.2137L2.01511 31.5672L2.36867 31.9208L2.72222 31.5672L2.36867 31.2137ZM30.2994 30.153L16.8644 16.718L16.1572 17.4251L29.5923 30.8601L30.2994 30.153ZM30.2994 29.4459L29.5923 30.153L30.2994 30.8601L31.0065 30.153L30.2994 29.4459ZM16.8644 16.718L30.2994 30.153L31.0065 29.4459L17.5715 16.0109L16.8644 16.718ZM30.2994 2.57584L16.8644 16.0109L17.5715 16.718L31.0065 3.28295L30.2994 2.57584ZM29.5923 2.57584L30.2994 3.28295L31.0065 2.57584L30.2994 1.86874L29.5923 2.57584ZM16.8644 16.0109L30.2994 2.57584L29.5923 1.86874L16.1572 15.3038L16.8644 16.0109ZM2.01511 1.86874L16.1572 16.0109L16.8644 15.3038L2.72222 1.16163L2.01511 1.86874ZM2.01511 2.57584L2.72222 1.86874L2.01511 1.16163L1.30801 1.86874L2.01511 2.57584ZM16.1572 16.0109L2.01511 1.86874L1.30801 2.57584L15.4501 16.718L16.1572 16.0109ZM2.01511 30.8601L16.1572 16.718L15.4501 16.0109L1.30801 30.153L2.01511 30.8601ZM2.72222 30.8601L2.01511 30.153L1.30801 30.8601L2.01511 31.5672L2.72222 30.8601ZM16.1572 16.718L2.01511 30.8601L2.72222 31.5672L16.8644 17.4251L16.1572 16.718Z" fill="black"/>
</svg>
